# xmcd
#
# Track frame offsets: 
#        150
#        23617
#        44282
#        63817
#        86230
#        106522
#        133312
#        156567
#        177172
#        203230
#        222025
#        243440
#        261130
#
# Disc length: 3821 seconds
#
# Revision: 3
# Processed by: cddbd v1.5.2PL0 Copyright (c) Steve Scherf et al.
# Submitted via: ExactAudioCopy v0.95a5
#
DISCID=b00eeb0d
DTITLE=Keith Washington - k-kw
DYEAR=1998
DGENRE=R&B
TTITLE0=I Warned You
TTITLE1=No Matter
TTITLE2=I Don't Mind
TTITLE3=Tell Me (Are You With It)
TTITLE4=Bring It On
TTITLE5=I Love You (duet with Chante Moore)
TTITLE6=You Sure Love To Ball
TTITLE7=Long Ago
TTITLE8=I Can't Put You Down
TTITLE9=You Let Me Down
TTITLE10=Smile
TTITLE11=Only You
TTITLE12=Bring It On (Remix)
EXTD=
EXTT0=
EXTT1=
EXTT2=
EXTT3=
EXTT4=
EXTT5=
EXTT6=
EXTT7=
EXTT8=
EXTT9=
EXTT10=
EXTT11=
EXTT12=
PLAYORDER=
